<?xml version="1.0" encoding="utf-8"?>
<!-- Generator: Adobe Illustrator 22.0.1, SVG Export Plug-In . SVG Version: 6.00 Build 0)  -->
<svg version="1.1" id="Layer_1" xmlns="http://www.w3.org/2000/svg" xmlns:xlink="http://www.w3.org/1999/xlink" x="0px" y="0px"
	 viewBox="0 0 64 64" style="enable-background:new 0 0 64 64;" xml:space="preserve">
<style type="text/css">
	.st0{fill:none;}
	.st1{fill:#FFFFFF;}
</style>
<title>ikoner</title>
<circle class="st0" cx="18" cy="18.3" r="4.8"/>
<path class="st1" d="M12.3,24c3.1,3.1,8.2,3.1,11.3,0s3.1-8.2,0-11.3s-8.2-3.1-11.3,0c-1.5,1.5-2.3,3.5-2.3,5.6
	C9.9,20.5,10.8,22.5,12.3,24z M13.2,18.3c0-2.6,2.1-4.8,4.8-4.8s4.8,2.1,4.8,4.8c0,2.6-2.1,4.8-4.7,4.8C15.4,23.1,13.2,21,13.2,18.3
	C13.2,18.3,13.2,18.3,13.2,18.3L13.2,18.3z"/>
<path class="st1" d="M18,8.5c0.9,0,1.6-0.7,1.6-1.6V4.4c0-0.9-0.7-1.6-1.6-1.6c-0.9,0-1.6,0.7-1.6,1.6c0,0,0,0,0,0v2.5
	C16.4,7.8,17.1,8.5,18,8.5z"/>
<path class="st1" d="M16.3,29.7v2.5c0,0.9,0.7,1.6,1.6,1.6c0.9,0,1.6-0.7,1.6-1.6v-2.5c0-0.9-0.7-1.6-1.6-1.6
	C17.1,28.1,16.3,28.8,16.3,29.7C16.3,29.7,16.3,29.7,16.3,29.7z"/>
<path class="st1" d="M26.4,11.5c0.4,0,0.8-0.2,1.2-0.5l1.8-1.8c0.6-0.7,0.6-1.7-0.1-2.3c-0.6-0.6-1.6-0.6-2.2,0l-1.8,1.8
	c-0.6,0.6-0.6,1.7,0,2.3C25.6,11.3,26,11.5,26.4,11.5L26.4,11.5z"/>
<path class="st1" d="M8.4,25.6l-1.8,1.8C6,28,6,29,6.6,29.7c0,0,0,0,0,0c0.3,0.3,0.7,0.5,1.1,0.5c0.4,0,0.8-0.2,1.2-0.5l1.8-1.8
	c0.6-0.6,0.6-1.6,0-2.3c0,0,0,0,0,0C10,24.9,9,24.9,8.4,25.6z"/>
<path class="st1" d="M27.7,18.3c0,0.9,0.7,1.6,1.6,1.6c0,0,0,0,0,0h2.5c0.9,0,1.6-0.7,1.6-1.6c0-0.9-0.7-1.6-1.6-1.6h-2.5
	C28.5,16.7,27.7,17.4,27.7,18.3z"/>
<path class="st1" d="M6.6,19.9c0.9,0,1.6-0.7,1.6-1.6c0-0.9-0.7-1.6-1.6-1.6c0,0,0,0,0,0H4c-0.9,0-1.6,0.7-1.6,1.6
	c0,0.9,0.7,1.6,1.6,1.6c0,0,0,0,0,0H6.6z"/>
<path class="st1" d="M8.5,11c0.3,0.3,0.7,0.5,1.1,0.5c0.9,0,1.6-0.7,1.6-1.6c0-0.4-0.2-0.8-0.5-1.1L9,6.9C8.3,6.3,7.3,6.4,6.7,7.1
	c-0.5,0.6-0.5,1.5,0,2.1L8.5,11z"/>
<path class="st1" d="M27.5,25.6L27.5,25.6c-0.7-0.6-1.7-0.6-2.3,0.1c-0.6,0.6-0.6,1.6,0,2.2l1.8,1.8c0.3,0.3,0.7,0.5,1.1,0.5
	c0.4,0,0.8-0.2,1.1-0.5c0.3-0.3,0.5-0.7,0.5-1.1c0-0.4-0.2-0.8-0.5-1.1L27.5,25.6z"/>
<path class="st1" d="M61.6,58.1h-6.8V44.8l7.8-7.8c0.6-0.6,0.6-1.7,0-2.3s-1.7-0.6-2.3,0l0,0L42.7,52.3c-0.6,0.6-0.6,1.7,0,2.3
	c0.3,0.3,0.7,0.5,1.1,0.5c0.4,0,0.8-0.2,1.1-0.5l6.5-6.5v10H39.1V44.8l7.8-7.8c0.6-0.6,0.6-1.7,0-2.3s-1.7-0.6-2.3,0l0,0L27,52.3
	c-0.6,0.6-0.6,1.7,0,2.3c0.6,0.6,1.7,0.6,2.3,0l6.5-6.5v10H23V44.8l7.8-7.8c0.6-0.6,0.6-1.7,0-2.3c-0.6-0.6-1.7-0.6-2.3,0L10.9,52.3
	c-0.6,0.6-0.6,1.7,0,2.3c0,0,0,0,0,0c0.3,0.3,0.7,0.5,1.1,0.5c0.4,0,0.9-0.2,1.2-0.5l6.5-6.5v10H5.4c-0.9-0.1-1.7,0.6-1.8,1.5
	s0.6,1.7,1.5,1.8c0.1,0,0.2,0,0.3,0h56.2c0.9-0.1,1.6-0.9,1.5-1.8C63.1,58.8,62.4,58.2,61.6,58.1L61.6,58.1z"/>
</svg>
