<svg id="Layer_1" data-name="Layer 1" xmlns="http://www.w3.org/2000/svg" viewBox="0 0 500 500"><defs><style>.cls-1{fill:#fff;}</style></defs><title>icon</title><path class="cls-1" d="M252.48,196.07c-102,0-164.66-24.32-164.66-41.76s62.64-41.76,164.66-41.76,164.67,24.32,164.67,41.76-62.65,41.76-164.67,41.76m164.67,54.35c0,17.44-62.65,41.77-164.67,41.77S87.82,267.86,87.82,250.42s62.64-41.76,164.66-41.76S417.15,233,417.15,250.42m0,96.11c0,17.45-62.65,41.77-164.67,41.77S87.82,364,87.82,346.53s62.64-41.76,164.66-41.76,164.67,24.33,164.67,41.76m12.59-192.22c0-23.49-40.43-39.79-92.81-48.06,52.38-8.27,92.81-24.56,92.81-48,0-35.31-91.33-54.36-177.26-54.36-52,0-100.88,6.53-134.15,17.9l4.08,11.91c32-10.94,79.42-17.21,130.07-17.21,102,0,164.67,24.31,164.67,41.76S354.5,100,252.48,100c-85.93,0-177.25,19-177.25,54.35,0,23.49,40.44,39.79,92.8,48.06-52.36,8.28-92.8,24.56-92.8,48s40.44,39.79,92.8,48.06c-52.36,8.28-92.8,24.56-92.8,48s40.44,39.79,92.8,48.06c-52.36,8.28-92.8,24.57-92.8,48.06C75.23,478,166.55,497,252.48,497c59.51,0,114.36-8.52,146.74-22.76l-5.07-11.53c-30.86,13.58-83.82,21.7-141.67,21.7-102,0-164.66-24.32-164.66-41.76s62.64-41.76,164.66-41.76c85.93,0,177.26-19.05,177.26-54.36,0-23.49-40.43-39.77-92.81-48,52.38-8.27,92.81-24.57,92.81-48.06s-40.43-39.77-92.8-48c52.37-8.27,92.8-24.57,92.8-48.06"/></svg>