<?xml version="1.0" encoding="utf-8"?>
<!-- Generator: Adobe Illustrator 22.0.1, SVG Export Plug-In . SVG Version: 6.00 Build 0)  -->
<svg version="1.1" id="Layer_1" xmlns="http://www.w3.org/2000/svg" xmlns:xlink="http://www.w3.org/1999/xlink" x="0px" y="0px"
	 viewBox="0 0 64 64" style="enable-background:new 0 0 64 64;" xml:space="preserve">
<style type="text/css">
	.st0{fill:none;}
	.st1{fill:#FFFFFF;}
</style>
<title>ikoner</title>
<polygon class="st0" points="4.6,41.7 21.1,41.7 22.1,34.9 7.5,34.9 "/>
<polygon class="st0" points="24.3,20.4 13.7,20.4 11.7,25.1 23.6,25.1 "/>
<polygon class="st0" points="11,26.8 8.2,33.1 22.4,33.1 23.3,26.8 "/>
<polygon class="st0" points="37.9,20.4 26.1,20.4 25.4,25.1 38.6,25.1 "/>
<polygon class="st0" points="52.2,25.1 50.2,20.4 39.6,20.4 40.3,25.1 "/>
<polygon class="st0" points="23.9,34.9 22.8,41.7 41.1,41.7 40.1,34.9 "/>
<polygon class="st0" points="39.8,33.1 38.8,26.8 25.1,26.8 24.1,33.1 "/>
<polygon class="st0" points="53,26.8 40.6,26.8 41.6,33.1 55.7,33.1 "/>
<polygon class="st0" points="34.4,57.5 34.4,57.5 34.4,57.5 "/>
<rect x="29.5" y="48.4" class="st0" width="4.9" height="9.1"/>
<polygon class="st0" points="29.5,57.5 29.5,57.5 29.5,57.5 "/>
<polygon class="st0" points="56.4,34.9 41.8,34.9 42.9,41.7 59.4,41.7 "/>
<path class="st1" d="M42.1,57.5L42.1,57.5z"/>
<path class="st1" d="M57.6,33.2L57.6,33.2L57.6,33.2l-6.2-14.5H12.6L6.3,33.1l0,0l0,0L1.9,43.5H62L57.6,33.2z M50.2,20.4l2,4.7H40.3
	l-0.7-4.7H50.2z M26.1,20.4h11.8l0.7,4.7H25.4L26.1,20.4z M38.8,26.8l1,6.3H24.1l1-6.3H38.8z M13.7,20.4h10.6l-0.7,4.7H11.7
	L13.7,20.4z M21.1,41.7H4.6l3-6.9h14.6L21.1,41.7z M8.2,33.1l2.8-6.3h12.3l-1,6.3H8.2z M22.8,41.7l1-6.9h16.2l1,6.9H22.8z
	 M40.6,26.8H53l2.7,6.3H41.6L40.6,26.8z M41.8,34.8h14.6l2.9,6.9H42.9L41.8,34.8z"/>
<path class="st1" d="M61.8,46.6H2.1c-0.5,0-0.9,0.4-0.9,0.9c0,0.5,0.4,0.9,0.9,0.9h25.6v9.1h-4.6c-0.5,0-0.9,0.4-0.9,0.9l0,0
	c0,0.5,0.4,0.9,0.9,0.9h18c0.5,0,0.9-0.4,0.9-0.8c0-0.4-0.2-0.7-0.6-0.9l0,0c-0.1,0-0.2,0-0.2,0h-5v-9.1h25.6c0.5,0,0.9-0.4,0.9-0.9
	c0,0,0,0,0,0l0,0C62.7,47,62.3,46.6,61.8,46.6C61.8,46.6,61.8,46.6,61.8,46.6z M29.5,48.4h4.9v9.1h-4.9V48.4z"/>
</svg>
