<svg id="Layer_1" data-name="Layer 1" xmlns="http://www.w3.org/2000/svg" viewBox="0 0 500 500"><defs><style>.cls-1{fill:#fff;}</style></defs><title>icon</title><path class="cls-1" d="M450,453.63a4.82,4.82,0,0,1-3.55,1.53H55.54A4.87,4.87,0,0,1,52,453.63a4.92,4.92,0,0,1-1.35-3.71C56.39,343.59,144.41,260.3,251,260.3A200.05,200.05,0,0,1,326.59,275,77.58,77.58,0,0,0,436.47,384.12a200.05,200.05,0,0,1,14.9,65.8,4.92,4.92,0,0,1-1.35,3.71M152.83,149.47A98.17,98.17,0,1,1,251,247.64a98.28,98.28,0,0,1-98.17-98.17M385.08,260a65.92,65.92,0,1,1-37.62,11.82A66.08,66.08,0,0,1,385.08,260M463,449.3A211.54,211.54,0,0,0,445.22,375,77.57,77.57,0,0,0,335.63,266.23a210.47,210.47,0,0,0-45.92-14,109.81,109.81,0,1,0-77.42,0C117.62,269.66,44.41,350,39,449.3a16.71,16.71,0,0,0,4.53,12.32,16.35,16.35,0,0,0,12,5.16H446.47a16.37,16.37,0,0,0,12-5.16A16.7,16.7,0,0,0,463,449.3"/><path class="cls-1" d="M354.09,331.81h25.18V357a5.81,5.81,0,0,0,11.62,0V331.81h25.18a5.81,5.81,0,0,0,0-11.62H390.89V295a5.81,5.81,0,0,0-11.62,0v25.18H354.09a5.81,5.81,0,1,0,0,11.62"/></svg>