<svg id="Layer_1" data-name="Layer 1" xmlns="http://www.w3.org/2000/svg" viewBox="0 0 500 500"><defs><style>.cls-1{fill:#fff;}</style></defs><title>icon</title><g id="Shape_1" data-name="Shape 1"><path class="cls-1" d="M157.82,72c10.05,0,20.31,3.83,30.5,11.38l8.19,6.08,8.29-5.94c8.92-6.39,18.09-9.63,27.26-9.63,13.9,0,27.39,7.61,39,22l5.05,6.25,7.94-1.22a107.68,107.68,0,0,1,16.21-1.4c17.59,0,28.22,6.25,40.65,23.87l5.41,7.66,9.14-2.09a50.81,50.81,0,0,1,11.34-1.38c10,0,18.17,3.66,25.07,11.19,16.93,18.49,25.21,60.63,21.09,107.33-5.22,59.12-31.71,109.66-42.86,128.65l-1.69,2.87-.21,3.32c-.88,13.93-1,43.83-.92,61.63H146.52c-.23-12.73-.49-35.74-.49-74v-4.27l-2.38-3.54c-31.87-47.39-47.25-86-54.55-110-5.3-17.45-5.68-44.18,4.06-59.33,4.6-7.16,11.15-11.22,20-12.41l12.07-1.62,0-12.19c.05-11.88-.26-22.45-.54-31.77-1-35.46-.72-47.2,12.94-56A40.27,40.27,0,0,1,157.82,72m0-14a54.18,54.18,0,0,0-27.43,7.5c-26.76,17-18.84,43.5-19.06,99.63C67.61,171,67.27,227,75.72,254.79s25,67.1,56.32,113.75c0,68.37.83,88,.83,88H381.36s-.43-54.89.83-74.72c7-12,38.82-67.52,44.73-134.5,5.43-61.56-8.57-133.74-60.09-133.74a64.94,64.94,0,0,0-14.46,1.73c-14.85-21-29.55-29.78-52.08-29.78A121.78,121.78,0,0,0,282,87.08c-14.78-18.27-32.27-27.19-49.91-27.19-12,0-24.08,4.13-35.41,12.25C182.21,61.44,168.92,58,157.82,58Z"/></g></svg>