<svg id="Layer_1" data-name="Layer 1" xmlns="http://www.w3.org/2000/svg" viewBox="0 0 500 500"><defs><style>.cls-1{fill:#fff;}</style></defs><title>icon</title><path class="cls-1" d="M236.64,470c-7.91-1.07-15.86-1.84-23.71-3.24-51.42-9.2-94.08-33.84-128.33-73.19-.81-.93-1.68-1.8-3-3.24-.13,1.88-.28,3.08-.28,4.28,0,10,.07,20-.05,30-.06,5.56-2.88,8.67-7.4,8.62s-7.16-3.07-7.17-8.76q-.09-27.64,0-55.3c0-6.26,2.69-8.89,8.91-8.91q27.66-.07,55.3,0c5.4,0,8.81,2.93,8.82,7.28s-3.4,7.27-8.79,7.29c-12.58.05-25.15,0-37.73,0H89.1l-.8,1.23c7.89,8.35,15.34,17.16,23.74,25,29.41,27.35,63.94,45.13,103.63,51.3,69.52,10.79,129.83-8.86,179.7-58.42,34-33.82,53-75.38,58-123.08a201.14,201.14,0,0,0-7.81-79.62,55.44,55.44,0,0,1-1.53-5.79c-.83-4.43,1-7.63,4.76-8.79,4-1.21,7.74.57,9.08,4.94,2.21,7.22,4.51,14.47,5.86,21.88,2,10.93,3.16,22,4.7,33,.14,1,.4,1.91.61,2.86v24c-.35,3.09-.71,6.17-1.05,9.25-5.25,47.24-23.29,88.9-55.13,124.23-33.8,37.51-75.68,60.92-125.51,69.75-8.26,1.46-16.63,2.29-24.95,3.41Z"/><path class="cls-1" d="M262.36,31c7.9,1.06,15.86,1.84,23.7,3.24,51.4,9.2,94.06,33.8,128.3,73.14.65.76,1.3,1.52,2,2.25a5.11,5.11,0,0,0,1.08.55c.11-1.34.28-2.53.28-3.73,0-9.85,0-19.71,0-29.57,0-5.16,2-8.14,5.64-9,5.15-1.15,8.93,2.31,8.95,8.51.07,18.43,0,36.86,0,55.29,0,.28,0,.57,0,.85-.29,5.42-2.9,8.12-8.38,8.15q-28.29.1-56.57,0c-4.8,0-8-3-8.08-7.13s3.23-7.37,8.22-7.4c12.71-.08,25.42,0,38.14,0,1.39,0,2.78,0,5.1,0-2.68-3.38-4.73-6.22-7-8.84-36.89-42-82.91-66.64-138.9-70.87-99.3-7.51-188.7,56.71-213.72,153.09-9.59,36.94-8.45,73.77,2.35,110.34.4,1.37.89,2.72,1.18,4.11.92,4.36-1.09,8.14-4.85,9.27-4,1.21-7.94-.88-9.21-5.46-2.29-8.24-4.68-16.49-6.21-24.88-1.89-10.34-3-20.84-4.38-31.26v-24c.35-3.09.71-6.17,1.05-9.26,5.25-47.23,23.29-88.89,55.13-124.22C120,66.65,161.86,43.24,211.69,34.41,220,33,228.32,32.12,236.64,31Z"/><path class="cls-1" d="M259,226.85l40.69-6.75c11.68-1.94,23.38-3.82,35-5.83,3.57-.62,6.59-.05,8.67,3.08s1.17,6.22-.76,9.17Q288.54,309.4,234.47,392.28c-2.71,4.15-6.05,5.39-9.75,3.87-3.54-1.46-5-4.93-4-9.75l19-94.86c.13-.68.19-1.37.36-2.69-6.75,1.09-13.17,2.1-19.58,3.16-18.45,3.05-36.9,6.07-55.33,9.23-3.8.65-7.18.56-9.52-2.93s-.79-6.73,1.13-9.93q44.43-74,88.8-148,9.26-15.42,18.52-30.84c2.85-4.72,6.32-6.27,10.16-4.7,3.62,1.48,4.95,5,4,10.16q-9.57,54-19.1,107.93A34.39,34.39,0,0,0,259,226.85Zm-82.63,57.4c2.13-.2,3.55-.25,4.94-.48Q213.14,278.43,245,273c9.39-1.59,13,2.06,11.08,11.39q-4.56,22.43-9,44.87c-1.48,7.39-2.9,14.79-4.34,22.18l.77.26,78.24-120a23.85,23.85,0,0,0-3.45,0c-14.21,2.35-28.42,4.76-42.63,7.13-8,1.34-16,2.86-24.07,3.88-6.48.82-9.59-2.56-9-9.08.1-1.14.31-2.26.51-3.39l14-79.17-.64-.31C229.85,195.06,203.32,239.27,176.34,284.25Z"/></svg>