<svg id="Layer_1" data-name="Layer 1" xmlns="http://www.w3.org/2000/svg" viewBox="0 0 500 500"><defs><style>.cls-1{fill:#fff;}</style></defs><title>icon</title><path class="cls-1" d="M414.62,312C387.26,382.4,328,435.76,251.78,458.7a266.22,266.22,0,0,1-72.25-34.08c153.34-90.3,221.9-194.35,247.65-243.7q.1,4.41.19,8.85c.94,41.59,1.9,84.61-12.75,122.27M114.15,359.86c90.94-37.9,161.68-117,205.28-177.23,39.89-55.1,64.87-104.75,72.22-120.06,17.27,2.93,29.19,5.71,35.35,7.29.06,16.54,0,33.09,0,49.65q0,14.6-.05,29.2c-5.26,13.47-63.84,153.69-259.59,267.14a243.38,243.38,0,0,1-53.19-56m-38-170.13c.21-9.66.43-19.22.44-28.61q0-20.62,0-41.25c0-16.65-.08-33.31,0-50C94,65.56,157,51.75,251.78,51.75c53,0,95.37,4.13,125.69,8.58C357.13,101.57,259.22,286,106.62,348.11A235.93,235.93,0,0,1,88.94,312c-14.65-37.67-13.69-80.71-12.75-122.31m364.9-.27c-.21-9.58-.42-19.06-.44-28.37,0-13.85,0-27.69.05-41.55,0-18.33.09-36.65,0-55l0-5.06L435.82,58c-2.71-.81-67.48-20-184-20-114,0-181.17,19.17-184,20L62.9,59.44l0,5.12c-.11,18.45-.06,36.9,0,55.35,0,13.73.07,27.46,0,41.18,0,9.3-.23,18.77-.44,28.33-1,43-2,87.37,13.68,127.6,29.15,75,92.46,131.6,173.7,155.42l1.93.56,1.93-.56C335,448.62,398.27,392,427.4,317c15.66-40.21,14.66-84.62,13.69-127.56"/><polygon class="cls-1" points="251.36 128.48 241.66 118.78 167.71 192.73 138.46 163.49 128.76 173.19 167.71 212.14 251.36 128.48"/></svg>