<svg id="Layer_1" data-name="Layer 1" xmlns="http://www.w3.org/2000/svg" viewBox="0 0 500 500"><defs><style>.cls-1{fill:#fff;}</style></defs><title>icon</title><path class="cls-1" d="M485.63,305.81l-13.23,2.57c-6.81,1.33-13.68-1.26-15-4.35L399.73,173.85l0-.06-5.35-12.1a1.84,1.84,0,0,1,.07-1.76c.75-1.41,3.12-3.35,7.41-4.18l58-11.27a21.69,21.69,0,0,1,25.82,21.29Zm-71.8-.4C361.31,298,340,276.69,321.15,257.92c-11.89-11.86-23.12-23.05-40.21-29a35.21,35.21,0,0,0-22.12-.22l-28.26,9a22.83,22.83,0,0,0-14.77,14.58c-6.24,18.94-16,29.36-30.65,32.79-8.93,2.09-16-1.59-18.74-5.89-1.56-2.44-2.66-6.32,1-11,9.22-11.94,11.94-27.25,13.93-38.43.36-2.06.71-4,1-5.67a21.49,21.49,0,0,1,8.73-13.26l50.83-35.56.08-.07a135.44,135.44,0,0,1,12.56-8.27,4.47,4.47,0,0,0,.71-.4c11.89-6.55,19.73-6.41,33.41-3.4l68.61,15.4a157.07,157.07,0,0,0,33.05,3.81l51.12,115.52ZM409,335.09c-3.86,6.84-11.12,10.6-20.46,10.6-23.72,0-59.49-21.08-59.85-21.3a6,6,0,0,0-6.13,10.31c1.45.86,33.38,19.7,59.53,22.61a23.05,23.05,0,0,1-5.43,13.78c-3.9,4.4-9.44,6.62-16.46,6.62-23.23,0-56.75-18.45-57.09-18.64a6,6,0,1,0-5.82,10.48c1.18.67,24.16,13.31,46.81,18.22a21.45,21.45,0,0,1-7.38,12.12c-4.8,3.8-11.06,5.13-18.6,4a84.29,84.29,0,0,1-31.47-11.69,6,6,0,0,0-6.32,10.19,97.2,97.2,0,0,0,21.72,10c-2.73,8.53-13.52,11-20.26,11-7.81,0-20.52-4.64-34.35-12.47,2-8.7,2.12-20.82-3.67-29.72a21.71,21.71,0,0,0-14.86-9.8,22.25,22.25,0,0,0-12.46,1.37,37.81,37.81,0,0,0-1.55-17.09c-2.21-6.24-6.22-10.85-11.57-13.34-6.71-3.1-14.45-2.37-21.79,1.39a36.29,36.29,0,0,0-.15-13.22c-1.31-6.12-4.47-10.9-9.12-13.83C165,312,155.4,312.86,146,318a22.14,22.14,0,0,0-4.28-12.48c-9-12.11-28.47-12.36-44.3-.57-1.17.87-2.24,1.74-3.25,2.61a6,6,0,0,0-2.85-1.77l-28.81-8,51.12-115.54a157.47,157.47,0,0,0,33-3.8L215.25,163c9.77-2.16,16.52-2.85,24-.66-1.37.94-2.77,1.94-4.23,3l-50.78,35.54a33.3,33.3,0,0,0-13.59,20.64c-.38,1.83-.75,3.86-1.12,6-1.78,10-4.2,23.59-11.61,33.2-6,7.76-6.58,17.05-1.57,24.84,6.18,9.6,18.85,14.06,31.55,11.08,18.88-4.42,31.74-17.74,39.31-40.7a10.82,10.82,0,0,1,7-6.91l28.26-9a23.16,23.16,0,0,1,14.54.1c14.53,5.09,24.34,14.88,35.7,26.2,19,18.9,42.46,42.33,97.61,50.61A21.25,21.25,0,0,1,409,335.09M217.36,423a13.39,13.39,0,0,1-8.11-5.91c-2.27-3.77-2.63-8.75-1.09-14.82,2.05-8.05,8.16-19.26,17-19.26a10.92,10.92,0,0,1,1.79.16,9.7,9.7,0,0,1,6.83,4.52c3.13,4.81,3.89,13.27,1.91,21-4.36,17.11-16.87,14.61-18.29,14.27m-43.9-19.69a12.16,12.16,0,0,1-6.09-7.15c-1.55-4.36-2.11-12.15,3.94-24.52s16.06-19.24,23.2-19.24a8.85,8.85,0,0,1,3.8.78c2.4,1.11,4.19,3.28,5.31,6.46,2.39,6.71,1.18,16.37-3.15,25.21-9.76,19.92-21.56,21-27,18.46m-42.22-25.05a10.67,10.67,0,0,1-4.45-7.06c-1.49-6.95,1.51-16.5,8.43-26.91,8.18-12.27,18.92-18.7,26.1-18.7a8.54,8.54,0,0,1,4.59,1.18c1.88,1.18,3.14,3.27,3.77,6.2,1.61,7.51-1.37,18.16-7.77,27.76-13.68,20.54-26,20.44-30.67,17.53m-36.33-37.9a12.64,12.64,0,0,1-2.07-10c1-5.39,5-10.87,11.73-15.85,5.54-4.12,11.83-6.24,17.18-6.24,4.4,0,8.17,1.43,10.35,4.36,2.91,3.9,1.93,8.93,1.09,11.58-1.66,5.2-5.58,10.4-10.76,14.26-13.72,10.22-23.41,7.4-27.52,1.87m-63.36-32-14-2.71v-140a21.69,21.69,0,0,1,25.83-21.29l58.71,11.41c4.29.83,6.68,2.77,7.41,4.18a1.87,1.87,0,0,1,.08,1.76l-5.37,12.12L46.61,304c-1.37,3.09-8.25,5.67-15.06,4.35M485.37,139.79a33.6,33.6,0,0,0-27.84-7.08l-58,11.27c-7.29,1.41-13,5.2-15.74,10.4a13.74,13.74,0,0,0-.41,12.15l1.57,3.56a143.81,143.81,0,0,1-25.06-3.37l-68.63-15.4c-15.53-3.43-25.66-3.6-39.3,3.32-13.89-7-24.4-6.6-39.32-3.32L144,166.72a143.82,143.82,0,0,1-25,3.37l1.58-3.56a13.77,13.77,0,0,0-.41-12.15c-2.71-5.2-8.45-9-15.75-10.4L45.68,132.57A33.68,33.68,0,0,0,5.59,165.63v145a6,6,0,0,0,4.85,5.89l18.83,3.65a31.76,31.76,0,0,0,6,.58c9.92,0,19.07-4.64,22.26-11.85l0,0,28.3,7.84a31,31,0,0,0-4.84,11.5,24.08,24.08,0,0,0,24.42,29,33.39,33.39,0,0,0,11-2c-2.51,7.93-2.34,14.09-1.41,18.45a21.37,21.37,0,0,0,21.74,17.92c5.21,0,11.32-1.58,17.78-5.92a32.8,32.8,0,0,0,1.49,14.45,24.24,24.24,0,0,0,12.36,14,23.76,23.76,0,0,0,9.88,2.07,28.88,28.88,0,0,0,17-5.79A26.64,26.64,0,0,0,199,423.25a25.11,25.11,0,0,0,15.57,11.39,25.88,25.88,0,0,0,6,.71c8.24,0,16.91-4,22.49-13.25,10.37,5.75,26.25,13.21,38.79,13.21,16.31,0,28.47-7.95,31.92-20.05.85.16,1.71.3,2.57.44a44.91,44.91,0,0,0,6.9.55,33,33,0,0,0,21-7A33.66,33.66,0,0,0,356,389.55c1.43.1,2.84.16,4.23.16,10.45,0,19.24-3.7,25.43-10.67a35.39,35.39,0,0,0,8.46-21.72c11.13-1.43,20.19-7.2,25.36-16.33a33.32,33.32,0,0,0,2.95-25.52l23.94-6.64,0,.05c3.19,7.21,12.35,11.85,22.28,11.85a31.81,31.81,0,0,0,6-.58l18.09-3.52a6,6,0,0,0,4.84-5.88v-145a33.55,33.55,0,0,0-12.25-26"/></svg>