<svg id="Layer_1" data-name="Layer 1" xmlns="http://www.w3.org/2000/svg" viewBox="0 0 500 500"><defs><style>.cls-1{fill:#fff;}</style></defs><title>icon</title><path class="cls-1" d="M464.27,464H37V33a6,6,0,1,0-12,0V476H464.27a6,6,0,1,0,0-12.05"/><path class="cls-1" d="M168.88,311.63a13,13,0,0,1,25.67-2.7,12.7,12.7,0,0,1-3.33,11.58,13,13,0,0,1-9.37,4,13.43,13.43,0,0,1-3.72-.54,13,13,0,0,1-8.64-8.41,12.65,12.65,0,0,1-.61-3.91m95.46,11.23a13.14,13.14,0,0,1,11.74,7.4,12.65,12.65,0,0,1,1.23,5.47,13,13,0,0,1-25.65,2.78,13.38,13.38,0,0,1-.31-2.78,12.71,12.71,0,0,1,3.55-8.82,13,13,0,0,1,9.44-4.05M81.07,418.08a6,6,0,0,0,4.25-1.76L169,333a25.09,25.09,0,0,0,34.46-8.84l35.85,10.67c0,.3,0,.6,0,.9a25,25,0,1,0,44.23-16l103.87-146,9.88,51.95a6,6,0,0,0,5.91,4.91,6.27,6.27,0,0,0,1.13-.11,6,6,0,0,0,4.79-7l-13.6-71.58-71,13.5a6,6,0,0,0,2.26,11.84L377,167.67l-103.14,145a25.07,25.07,0,0,0-31.13,10.58L206.86,312.6c0-.32,0-.64,0-1a25,25,0,0,0-50.06,0,24.62,24.62,0,0,0,3.64,12.9L76.81,407.79a6,6,0,0,0,4.26,10.29"/></svg>