<?xml version="1.0" encoding="utf-8"?>
<!-- Generator: Adobe Illustrator 22.0.1, SVG Export Plug-In . SVG Version: 6.00 Build 0)  -->
<svg version="1.1" id="Layer_1" xmlns="http://www.w3.org/2000/svg" xmlns:xlink="http://www.w3.org/1999/xlink" x="0px" y="0px"
	 viewBox="0 0 64 64" style="enable-background:new 0 0 64 64;" xml:space="preserve">
<style type="text/css">
	.st0{fill:#FFFFFF;}
</style>
<title>ikoner</title>
<path class="st0" d="M63.6,49.2V12.9c0-2.5-2-4.5-4.5-4.5c0,0,0,0,0,0H4.9c-2.5,0-4.5,2-4.5,4.5c0,0,0,0,0,0v36.3
	c0,2.5,2,4.5,4.5,4.5c0,0,0,0,0,0h54.2C61.6,53.7,63.6,51.7,63.6,49.2z M4.9,50.7c-0.8,0-1.5-0.7-1.5-1.5V12.9
	c0-0.8,0.7-1.5,1.5-1.5h54.2c0.2,0,0.4,0,0.5,0.1c0.6,0.2,1,0.8,1,1.4v36.3c0,0.8-0.7,1.5-1.5,1.5H4.9z"/>
<path class="st0" d="M37.2,57.7H26.7c-0.8-0.1-1.4-0.9-1.3-1.7c0.1-0.6,0.6-1.1,1.3-1.3h10.5c0.8,0.1,1.4,0.9,1.3,1.7
	C38.4,57.1,37.9,57.6,37.2,57.7z"/>
<path class="st0" d="M18.4,42.2c0.1,0,0.3-0.1,0.4-0.2l7.1-6.9c0.3,0.2,0.7,0.3,1.1,0.3c0.7,0,1.4-0.4,1.8-1l3,0.9v0.1
	c0.1,1.2,1.1,2,2.3,2c1.1-0.1,1.9-0.9,2-2c0-0.5-0.1-1-0.5-1.4l8.8-12.2l0.8,4.3c0,0.2,0.3,0.4,0.5,0.4h0.1c0.3-0.1,0.5-0.3,0.4-0.6
	l-1.2-6l-6,1.1c-0.3,0-0.5,0.3-0.4,0.6c0,0,0,0,0,0c0.1,0.3,0.3,0.4,0.6,0.4l4.2-0.8l-8.7,12.1c-0.3-0.1-0.5-0.2-0.8-0.2
	c-0.7,0-1.4,0.4-1.8,1l-3-0.9v-0.1c-0.1-1.2-1.1-2-2.3-2c-1.1,0.1-1.9,0.9-2,2c0,0.4,0.1,0.7,0.3,1.1l-7.1,7c-0.2,0.2-0.2,0.5,0,0.7
	C18.1,42.1,18.2,42.2,18.4,42.2z M33.8,34.3H34c0.5,0.1,0.9,0.5,0.9,1c0,0.6-0.5,1.1-1.1,1.1c0,0,0,0,0,0c-0.5,0-0.9-0.3-1.1-0.8
	c0-0.1,0-0.2,0-0.2c0-0.3,0.1-0.5,0.3-0.7C33.3,34.3,33.5,34.2,33.8,34.3z M25.8,33.3c0-0.6,0.5-1.1,1.1-1.1c0,0,0,0,0,0
	c0.5,0,1,0.3,1.1,0.8c0,0.1,0,0.2,0,0.2c0,0.3-0.1,0.5-0.3,0.7c-0.2,0.2-0.5,0.3-0.8,0.3c-0.5,0-0.8-0.3-1-0.8
	C25.8,33.5,25.8,33.4,25.8,33.3z"/>
<path class="st0" d="M18.4,43c-0.4,0-0.7-0.1-0.9-0.4c-0.3-0.3-0.4-0.6-0.4-1c0-0.4,0.1-0.7,0.4-0.9l6.6-6.5
	c-0.1-0.3-0.1-0.6-0.1-0.9c0-1.6,1.4-2.9,3-2.9c1.4,0,2.5,1,2.8,2.3l2,0.6c0.6-0.6,1.3-0.9,2.1-0.9c0.2,0,0.3,0,0.5,0l7.2-9.9
	L39.3,23c-0.7,0.1-1.4-0.4-1.6-1.1c0,0,0,0,0,0c-0.1-0.3,0-0.7,0.2-1c0.2-0.3,0.5-0.5,0.9-0.6l6.8-1.3l1.3,6.8c0.1,0.3,0,0.7-0.2,1
	c-0.2,0.3-0.5,0.5-0.8,0.6h-0.2l0,0c-0.6,0-1.2-0.5-1.3-1.1l-0.5-2.5L36.5,34c0.8,1.4,0.3,3.2-1.2,4c-1.4,0.8-3.2,0.3-4-1.2
	c-0.2-0.3-0.3-0.6-0.3-0.9l-2-0.6c-0.6,0.6-1.3,0.9-2.1,0.9c-0.3,0-0.6,0-0.9-0.1l-6.7,6.5C19,42.9,18.7,43,18.4,43z M33.8,35.1
	c-0.1,0-0.1,0-0.2,0.1c0,0-0.1,0.1-0.1,0.2c0,0,0,0,0,0c0,0.1,0.1,0.2,0.3,0.2c0.1,0,0.3-0.1,0.3-0.2c0,0,0,0,0,0c0,0,0-0.1,0-0.1
	C34.1,35.1,34,35.1,33.8,35.1L33.8,35.1z M26.8,33.1c-0.1,0-0.3,0.1-0.3,0.2c0,0,0,0,0,0.1c0,0.1,0.1,0.1,0.2,0.2h0.1
	c0.1,0,0.2,0,0.2-0.1c0,0,0.1-0.1,0.1-0.2l0,0C27.1,33.2,27,33.1,26.8,33.1L26.8,33.1z"/>
</svg>
