<svg id="Layer_1" data-name="Layer 1" xmlns="http://www.w3.org/2000/svg" viewBox="0 0 500 500"><defs><style>.cls-1{fill:#fff;}</style></defs><title>icon</title><path class="cls-1" d="M361.53,294A174.3,174.3,0,0,0,404.67,179c0-96.51-78.51-175-175-175s-175,78.51-175,175A174.3,174.3,0,0,0,97.76,294L46.36,437.43l79.2-25.19L170.75,482l46-128.43c4.26.31,8.55.48,12.89.48s8.63-.17,12.88-.48l46,128.43,45.18-69.76,79.21,25.19ZM167.71,455.82,130.52,398.4,65.33,419.14l41.42-115.62a174.74,174.74,0,0,0,98.06,48.76Zm61.94-113.46c-90.07,0-163.34-73.27-163.34-163.34S139.58,15.69,229.65,15.69,393,89,393,179,319.71,342.36,229.65,342.36Zm99.12,56-37.19,57.42-37.1-103.54a174.68,174.68,0,0,0,98.06-48.76L394,419.14ZM229.65,43.45C154.89,43.45,94.07,104.27,94.07,179s60.82,135.57,135.58,135.57S365.22,253.78,365.22,179,304.4,43.45,229.65,43.45Zm0,259.46A123.89,123.89,0,1,1,353.53,179,124,124,0,0,1,229.65,302.91Zm72.06-154.37-86,82.65-47.45-37.64A5.84,5.84,0,1,0,161,202.7l51.45,40.81a5.84,5.84,0,0,0,7.68-.36L309.81,157a5.85,5.85,0,0,0-8.1-8.43Z"/></svg>